name analog
datacolumns 19
datarows 38
range 0.4305 0.449
endheader
time	ground_force_vx	ground_force_vy	ground_force_vz	ground_force_px	ground_force_py	ground_force_pz	l_ground_force_vx	l_ground_force_vy	l_ground_force_vz	l_ground_force_px	l_ground_force_py	l_ground_force_pz	ground_torque_x	ground_torque_y	ground_torque_z	l_ground_torque_x	l_ground_torque_y	l_ground_torque_z
0.4305	-0.0	-0.0	-0.0	10.87491226196289	27.58449935913086	-229.2939910888672	-0.1885222047567367	-29.49944305419922	-259.8561706542969	-0.0	-0.0	-0.0	-0.0	-0.0	-0.0	72941.2578125	-17003.4453125	1390.2950439453125
0.431	-0.0	-0.0	-0.0	11.496593475341797	26.81669807434082	-228.3243103027344	0.4435539245605469	-29.01400184631348	-259.4636535644531	-0.0	-0.0	-0.0	-0.0	-0.0	-0.0	72683.0	-17630.123046875	1628.2037353515625
0.4315	-0.0	-0.0	-0.0	12.09770965576172	26.03770637512207	-225.9429931640625	1.3756556510925293	-28.980712890625	-258.1558837890625	-0.0	-0.0	-0.0	-0.0	-0.0	-0.0	72482.125	-17833.580078125	1866.2132568359373
0.432	-0.0	-0.0	-0.0	12.698565483093262	26.467283248901367	-224.5937042236328	2.163006544113159	-28.792869567871094	-257.59197998046875	-0.0	-0.0	-0.0	-0.0	-0.0	-0.0	72083.59375	-18668.998046875	2241.124267578125
0.4325	-0.0	-0.0	-0.0	13.233476638793944	26.10344123840332	-224.31588745117188	3.2709131240844727	-28.815542221069336	-256.4117126464844	-0.0	-0.0	-0.0	-0.0	-0.0	-0.0	72158.5	-18733.083984375	2571.971435546875
0.433	-0.0	-0.0	-0.0	13.196866989135742	25.925111770629883	-222.9503326416016	3.5055348873138428	-28.582015991210938	-257.06573486328125	-0.0	-0.0	-0.0	-0.0	-0.0	-0.0	71997.015625	-19271.708984375	2680.316650390625
0.4335	-0.0	-0.0	-0.0	13.678834915161133	24.849687576293945	-224.1748962402344	4.227026462554932	-28.174617767333984	-257.5378112792969	-0.0	-0.0	-0.0	-0.0	-0.0	-0.0	71727.8515625	-19355.5078125	2851.304443359375
0.434	-0.0	-0.0	-0.0	13.500021934509276	25.318273544311523	-223.04649353027344	4.624562740325928	-28.19771957397461	-256.596923828125	-0.0	-0.0	-0.0	-0.0	-0.0	-0.0	71935.21875	-19834.4375	2936.74609375
0.4345	-0.0	-0.0	-0.0	13.80350112915039	25.21185111999512	-224.0115966796875	4.890763759613037	-28.02121353149414	-257.6279602050781	-0.0	-0.0	-0.0	-0.0	-0.0	-0.0	71604.890625	-20241.787109375	3033.80078125
0.435	-0.0	-0.0	-0.0	13.482921600341797	25.139034271240234	-224.57440185546875	5.287424087524414	-27.944721221923828	-255.5789794921875	-0.0	-0.0	-0.0	-0.0	-0.0	-0.0	71731.3828125	-20243.376953125	3055.984619140625
0.4355	-0.0	-0.0	-0.0	13.41821575164795	25.07376289367676	-223.51454162597656	5.340444564819336	-27.57990074157715	-253.856201171875	-0.0	-0.0	-0.0	-0.0	-0.0	-0.0	71666.1796875	-20582.21875	3077.901123046875
0.436	-0.0	-0.0	-0.0	13.63692569732666	24.984289169311523	-222.8565368652344	5.694878101348877	-27.833166122436523	-255.0894775390625	-0.0	-0.0	-0.0	-0.0	-0.0	-0.0	71192.3125	-20395.5859375	3026.6875
0.4365	-0.0	-0.0	-0.0	13.163354873657228	24.62467384338379	-223.6118011474609	5.730329513549805	-27.797521591186523	-252.8798828125	-0.0	-0.0	-0.0	-0.0	-0.0	-0.0	70722.6640625	-20743.267578125	3248.06396484375
0.437	-0.0	-0.0	-0.0	13.36915683746338	24.805339813232425	-222.61070251464844	5.794790267944336	-27.70906639099121	-251.38916015625	-0.0	-0.0	-0.0	-0.0	-0.0	-0.0	70689.953125	-20949.16015625	3153.5341796875
0.4375	-0.0	-0.0	-0.0	13.088964462280272	24.45916748046875	-221.23898315429688	6.790398597717285	-27.23920440673828	-250.99240112304688	-0.0	-0.0	-0.0	-0.0	-0.0	-0.0	70426.59375	-21126.8046875	3345.902587890625
0.438	-0.0	-0.0	-0.0	12.858879089355469	24.498306274414062	-221.44381713867188	7.26211404800415	-27.03504753112793	-252.4366149902344	-0.0	-0.0	-0.0	-0.0	-0.0	-0.0	70284.3984375	-21222.271484375	3468.990478515625
0.4385	-0.0	-0.0	-0.0	13.037368774414062	24.409875869750977	-223.0096435546875	7.794310569763184	-27.190895080566406	-249.2460784912109	-0.0	-0.0	-0.0	-0.0	-0.0	-0.0	70338.6484375	-21336.3359375	3532.750244140625
0.439	-0.0	-0.0	-0.0	12.578408241271973	24.49843978881836	-219.5773162841797	7.81885814666748	-27.00192642211914	-249.29425048828125	-0.0	-0.0	-0.0	-0.0	-0.0	-0.0	70016.46875	-21617.849609375	3639.14697265625
0.4395	-0.0	-0.0	-0.0	12.158197402954102	24.63803100585937	-219.224609375	8.567785263061523	-26.44518280029297	-248.34429931640625	-0.0	-0.0	-0.0	-0.0	-0.0	-0.0	70591.4765625	-21785.046875	3456.973388671875
0.44	-0.0	-0.0	-0.0	12.182520866394045	24.16641998291016	-221.19239807128903	8.922422409057617	-26.432985305786133	-249.14718627929688	-0.0	-0.0	-0.0	-0.0	-0.0	-0.0	70268.8515625	-21981.49609375	3639.978759765625
0.4405	-0.0	-0.0	-0.0	11.928361892700195	24.065208435058597	-220.98831176757807	8.958759307861328	-26.59729766845703	-248.74789428710935	-0.0	-0.0	-0.0	-0.0	-0.0	-0.0	70258.1015625	-22128.60546875	3673.768310546875
0.441	-0.0	-0.0	-0.0	12.37427806854248	24.37154006958008	-222.5479431152344	9.97394561767578	-25.61328887939453	-249.84385681152344	-0.0	-0.0	-0.0	-0.0	-0.0	-0.0	70421.7734375	-22313.13671875	3767.920654296875
0.4415	-0.0	-0.0	-0.0	12.757102966308594	23.965251922607425	-220.69456481933597	10.467872619628906	-25.449317932128903	-246.8499298095703	-0.0	-0.0	-0.0	-0.0	-0.0	-0.0	70353.828125	-22245.072265625	3899.695068359375
0.442	-0.0	-0.0	-0.0	12.806890487670898	24.091466903686523	-222.68946838378903	11.379981994628906	-24.970144271850582	-249.8922576904297	-0.0	-0.0	-0.0	-0.0	-0.0	-0.0	70621.8984375	-22617.619140625	4078.50634765625
0.4425	-0.0	-0.0	-0.0	13.318821907043455	24.37224769592285	-221.849365234375	12.229260444641112	-25.234458923339844	-250.1902313232422	-0.0	-0.0	-0.0	-0.0	-0.0	-0.0	71220.578125	-22712.044921875	4316.4423828125
0.443	-0.0	-0.0	-0.0	12.88620948791504	24.91665267944336	-223.3150177001953	13.67278003692627	-25.31137084960937	-251.33839416503903	-0.0	-0.0	-0.0	-0.0	-0.0	-0.0	70972.0	-22823.4140625	4520.85595703125
0.4435	-0.0	-0.0	-0.0	13.118372917175291	24.75594520568848	-224.3046875	13.737195014953612	-26.483585357666016	-252.08746337890625	-0.0	-0.0	-0.0	-0.0	-0.0	-0.0	71546.2265625	-23059.619140625	4621.95556640625
0.444	-0.0	-0.0	-0.0	13.327801704406738	25.023670196533203	-226.1416015625	14.384190559387209	-27.190093994140625	-251.5944976806641	-0.0	-0.0	-0.0	-0.0	-0.0	-0.0	71905.2734375	-23389.978515625	4652.72119140625
0.4445	-0.0	-0.0	-0.0	13.06527614593506	25.02402114868164	-226.44183349609372	14.423599243164062	-27.670799255371094	-253.3808441162109	-0.0	-0.0	-0.0	-0.0	-0.0	-0.0	71925.5703125	-23544.6171875	4889.02734375
0.445	-0.0	-0.0	-0.0	12.708632469177246	25.46415901184082	-225.3519592285156	15.05447483062744	-28.07317543029785	-253.3424072265625	-0.0	-0.0	-0.0	-0.0	-0.0	-0.0	72297.6796875	-23494.654296875	4911.3642578125
0.4455	-0.0	-0.0	-0.0	12.85996437072754	25.361248016357425	-226.14324951171875	15.435676574707031	-28.563459396362305	-255.52682495117188	-0.0	-0.0	-0.0	-0.0	-0.0	-0.0	72832.0703125	-23621.55859375	4962.0478515625
0.446	-0.0	-0.0	-0.0	13.107061386108398	25.01137351989746	-226.41558837890625	15.52438735961914	-28.532459259033203	-258.3197326660156	-0.0	-0.0	-0.0	-0.0	-0.0	-0.0	73333.9453125	-23857.3203125	4979.9697265625
0.4465	-0.0	-0.0	-0.0	12.695481300354004	24.805816650390625	-227.28404235839844	15.608057975769045	-28.46123313903809	-258.4248962402344	-0.0	-0.0	-0.0	-0.0	-0.0	-0.0	73508.2734375	-23969.015625	5051.2373046875
0.447	-0.0	-0.0	-0.0	12.544933319091797	24.77825164794922	-226.34068298339844	15.634491920471191	-28.752656936645508	-259.5786437988281	-0.0	-0.0	-0.0	-0.0	-0.0	-0.0	74099.2578125	-24057.115234375	5003.53271484375
0.4475	-0.0	-0.0	-0.0	12.255282402038574	24.7977352142334	-228.15423583984372	15.879230499267578	-28.664106369018555	-259.9286804199219	-0.0	-0.0	-0.0	-0.0	-0.0	-0.0	74230.984375	-24208.986328125	5072.0361328125
0.448	-0.0	-0.0	-0.0	12.029409408569336	24.956512451171875	-227.48294067382807	15.804126739501951	-28.541452407836918	-260.6277770996094	-0.0	-0.0	-0.0	-0.0	-0.0	-0.0	74377.1953125	-24154.609375	4996.6494140625
0.4485	-0.0	-0.0	-0.0	10.282636642456056	24.951784133911133	-230.7567138671875	15.387995719909668	-28.45319938659668	-262.9911804199219	-0.0	-0.0	-0.0	-0.0	-0.0	-0.0	74485.984375	-24293.1796875	5028.31005859375
0.449	-0.0	-0.0	-0.0	10.73788833618164	25.24236869812012	-230.97967529296875	15.025860786437988	-28.453266143798828	-261.73095703125	-0.0	-0.0	-0.0	-0.0	-0.0	-0.0	74871.171875	-24335.48046875	4715.44580078125
